<?xml version="1.0" encoding="UTF-8" standalone="no"?><!DOCTYPE svg PUBLIC "-//W3C//DTD SVG 1.1//EN" "http://www.w3.org/Graphics/SVG/1.1/DTD/svg11.dtd"><svg width="100%" height="100%" viewBox="0 0 25 24" version="1.1" xmlns="http://www.w3.org/2000/svg" xmlns:xlink="http://www.w3.org/1999/xlink" xml:space="preserve" xmlns:serif="http://www.serif.com/" style="fill-rule:evenodd;clip-rule:evenodd;stroke-linejoin:round;stroke-miterlimit:1.41421;"><path id="handbag" d="M7.97,4.871c0.068,-2.697 2.288,-4.871 5.006,-4.871c2.76,0 5.006,2.243 5.006,5c0,0 0,2 0,2l2.454,0c1.328,0 2.498,1.03 2.663,2.346l1.856,12.751c0.1,0.47 -0.003,0.944 -0.288,1.308c-0.295,0.378 -0.754,0.594 -1.26,0.595l-20.799,0c-0.485,0 -0.94,-0.203 -1.25,-0.558c-0.31,-0.356 -0.45,-0.835 -0.384,-1.314l1.902,-12.808c0.204,-1.304 1.391,-2.32 2.703,-2.32l2.389,0l0,-2l0.002,-0.129Zm10.012,4.129l0,1.268c0.599,0.346 1.002,0.993 1.002,1.732c0,1.103 -0.897,2.001 -2,2.001c-1.106,0 -2.006,-0.898 -2.006,-2.001c0,-0.738 0.403,-1.384 1.001,-1.73l0,-1.27l-6.008,0l0,1.269c0.598,0.346 1.001,0.992 1.001,1.731c0,1.103 -0.898,2.001 -2.002,2.001c-1.105,0 -2.004,-0.898 -2.004,-2.001c0,-0.739 0.404,-1.385 1.002,-1.73l0,-1.27m-4.95,13l19.899,0l-1.802,-12.385c-0.041,-0.325 -0.37,-0.615 -0.679,-0.615l-14.857,0c-0.322,0 -0.672,0.302 -0.723,0.621l-1.838,12.379Zm5.952,-9c0,0 0,0 0,0l0,0Zm8.014,-0.066l0,0l0,0.066l0,-0.066Zm-1.005,-7.934c0,-1.655 -1.348,-3 -3.003,-3c-1.605,0 -2.92,1.263 -3.001,2.846l-0.004,0.154l0,2l6.008,0l0,-2Z"/></svg>